<?xml version="1.0" encoding="UTF-8" standalone="no"?>
<svg width="511px" height="511px" viewBox="0 0 511 511" version="1.1" xmlns="http://www.w3.org/2000/svg" xmlns:xlink="http://www.w3.org/1999/xlink">
    <!-- Generator: Sketch 3.5.2 (25235) - http://www.bohemiancoding.com/sketch -->
    <title>engrenagem</title>
    <desc>Created with Sketch.</desc>
    <defs></defs>
    <g id="Page-1" stroke="none" stroke-width="1" fill="none" fill-rule="evenodd">
        <g id="engrenagem" fill="#000000">
            <path d="M450.546237,280.41125 C451.596637,272.23525 452.384438,263.9315 452.384438,255.5 C452.384438,247.0685 451.596637,238.76475 450.546237,230.58875 L506.086162,188.3035 C511.075564,184.471 512.519865,177.5725 509.237363,171.9515 L456.71734,83.42075 C453.434838,77.9275 446.607235,75.628 440.698733,77.9275 L375.311303,103.60525 C361.787397,93.513 346.950491,84.95375 330.931884,78.4385 L321.084379,10.731 C319.902679,4.72675 314.519376,0 307.954373,0 L202.914327,0 C196.349324,0 190.966021,4.72675 189.915621,10.731 L180.068116,78.4385 C164.049509,84.95375 149.212603,93.38525 135.688697,103.60525 L70.3012675,77.9275 C64.3927648,75.75575 57.5651618,77.9275 54.2826603,83.42075 L1.7626369,171.9515 C-1.51986456,177.44475 -0.0755639153,184.34325 4.91383831,188.3035 L60.322463,230.58875 C59.2720625,238.76475 58.4842622,247.0685 58.4842622,255.5 C58.4842622,263.9315 59.2720625,272.23525 60.322463,280.41125 L4.91383831,322.6965 C-0.0755639153,326.529 -1.51986456,333.4275 1.7626369,339.0485 L54.2826603,427.57925 C57.5651618,433.0725 64.3927648,435.372 70.3012675,433.0725 L135.688697,407.39475 C149.212603,417.487 164.049509,426.04625 180.068116,432.5615 L189.915621,500.269 C190.966021,506.27325 196.349324,511 202.914327,511 L307.954373,511 C314.519376,511 319.902679,506.27325 320.953079,500.269 L330.800584,432.5615 C346.819191,426.04625 361.656097,417.61475 375.180003,407.39475 L440.567432,433.0725 C446.475935,435.24425 453.303538,433.0725 456.58604,427.57925 L509.106063,339.0485 C512.388565,333.55525 510.944264,326.65675 505.954862,322.6965 L450.546237,280.41125 L450.546237,280.41125 Z M255.43435,344.925 C204.621227,344.925 163.524309,304.93925 163.524309,255.5 C163.524309,206.06075 204.621227,166.075 255.43435,166.075 C306.247473,166.075 347.344391,206.06075 347.344391,255.5 C347.344391,304.93925 306.247473,344.925 255.43435,344.925 L255.43435,344.925 Z" id="Shape"></path>
        </g>
    </g>
</svg>