<svg xmlns:dc="http://purl.org/dc/elements/1.1/" xmlns:cc="http://creativecommons.org/ns#" xmlns:rdf="http://www.w3.org/1999/02/22-rdf-syntax-ns#" xmlns:svg="http://www.w3.org/2000/svg" xmlns="http://www.w3.org/2000/svg" xmlns:sodipodi="http://sodipodi.sourceforge.net/DTD/sodipodi-0.dtd" xmlns:inkscape="http://www.inkscape.org/namespaces/inkscape" width="520pt" height="520pt" viewBox="0 0 520 520" version="1.1" inkscape:version="0.48.4 r9939"><metadata><rdf:RDF><cc:Work rdf:about=""><dc:format>image/svg+xml</dc:format><dc:type rdf:resource="http://purl.org/dc/dcmitype/StillImage"/><dc:title/></cc:Work></rdf:RDF></metadata><defs/><path style="fill:#000000;fill-opacity:1;stroke:#0000ff;stroke-width:0;stroke-miterlimit:4;stroke-opacity:1;stroke-dasharray:none" d="M70.7 0 C55.8 0 43.6 12.4 43.6 27.8 L43.6 492.1 C43.6 507.5 55.8 520 70.7 520 L449.4 520 C464.3 520 476.4 507.5 476.4 492.1 L476.4 173.4 L330.4 173.4 C315.4 173.4 303.3 173.2 303.3 157.8 L303.3 0 L70.7 0 zM332.2 11.5 L332.2 144.4 L465.2 144.4 C462.6 140.4 460.1 136.9 457.2 134 L457.2 138.1 L342.2 19.8 C339.5 16.9 336 14.2 332.2 11.5 zM168.1 260 L352.1 260 C357.1 260 361 264 361 269.2 L361 279.6 C361 284.8 364.3 288.9 359.3 288.9 L168.1 288.9 C162.9 288.9 159 284.8 159 279.6 L159 269.2 C159 264 162.9 260 168.1 260 zM168.1 317.8 L352.1 317.8 C357.1 317.8 361 321.8 361 327 L361 337.4 C361 342.6 364.3 346.6 359.3 346.6 L168.1 346.6 C162.9 346.6 159 342.6 159 337.4 L159 327 C159 321.8 162.9 317.8 168.1 317.8 zM168.1 375.5 L352.1 375.5 C357.1 375.5 361 379.6 361 384.8 L361 395.2 C361 400.4 364.3 404.4 359.3 404.4 L168.1 404.4 C162.9 404.4 159 400.4 159 395.2 L159 384.8 C159 379.6 162.9 375.5 168.1 375.5 z"/></svg>